<svg xmlns="http://www.w3.org/2000/svg" viewBox="0 0 1600 1000" preserveAspectRatio="xMidYMid slice">
<title>String field</title>
<rect x="0" y="0" width="1600" height="1000" fill="#2a2824"/>
<defs>
<pattern id="stDots" width="17" height="17" patternUnits="userSpaceOnUse">
<circle cx="4" cy="4" r="1.25" fill="#f6f3ee"/>
<circle cx="12.5" cy="12.5" r="0.85" fill="#f6f3ee"/>
</pattern>
<radialGradient id="stFade" cx="0.83" cy="0.11" r="0.62">
<stop offset="0" stop-color="#fff" stop-opacity="1"/>
<stop offset="0.62" stop-color="#fff" stop-opacity="0.5"/>
<stop offset="1" stop-color="#fff" stop-opacity="0"/>
</radialGradient>
<mask id="stMask"><rect x="1100" y="0" width="500" height="400" fill="url(#stFade)"/></mask>
</defs>
<rect x="1100" y="0" width="500" height="400" fill="url(#stDots)" mask="url(#stMask)" opacity="0.15"><animate attributeName="opacity" values="0.12;0.19;0.12" dur="18s" repeatCount="indefinite" calcMode="spline" keySplines="0.37 0 0.63 1;0.37 0 0.63 1"/></rect>
<path d="M 0 100 A 100 100 0 0 0 100 0" fill="none" stroke="#f6f3ee" stroke-width="1" opacity="0.15"/>
<path d="M 0 160 A 160 160 0 0 0 160 0" fill="none" stroke="#f6f3ee" stroke-width="1" opacity="0.1"/>
<path d="M 0 220 A 220 220 0 0 0 220 0" fill="none" stroke="#f6f3ee" stroke-width="1" opacity="0.07"/>
<path d="M 1450 1000 A 150 150 0 0 1 1600 850" fill="none" stroke="#f6f3ee" stroke-width="1" opacity="0.16"/>
<path d="M 1390 1000 A 210 210 0 0 1 1600 790" fill="none" stroke="#f6f3ee" stroke-width="1" opacity="0.11"/>
<path d="M 1330 1000 A 270 270 0 0 1 1600 730" fill="none" stroke="#f6f3ee" stroke-width="1" opacity="0.07"/>
<path d="M 26 -40 C 40 420 12 640 28.8 1040" fill="none" stroke="#f6f3ee" stroke-width="1" opacity="0.16"/>
<path d="M 52 -40 C 42 420 62 640 50 1040" fill="none" stroke="#f6f3ee" stroke-width="1" opacity="0.16"/>
<path d="M 80 -40 C 98 420 62 640 83.6 1040" fill="none" stroke="#f6f3ee" stroke-width="1" opacity="0.16"/>
<path d="M 1522 -40 C 1506 420 1538 640 1518.8 1040" fill="none" stroke="#f6f3ee" stroke-width="1" opacity="0.16"/>
<path d="M 1550 -40 C 1562 420 1538 640 1552.4 1040" fill="none" stroke="#f6f3ee" stroke-width="1" opacity="0.16"/>
<path d="M 1576 -40 C 1564 420 1588 640 1573.6 1040" fill="none" stroke="#f6f3ee" stroke-width="1" opacity="0.16"/>
<path d="M 64 -40 C 74 420 56 640 62 1040" fill="none" stroke="#f6f3ee" stroke-width="1.4" opacity="0.4"/>
<path d="M 64 -40 C 74 420 56 640 62 1040" pathLength="1600" fill="none" stroke="#f6f3ee" stroke-width="1.6" stroke-linecap="round" stroke-dasharray="60 1740" stroke-dashoffset="60" opacity="0.7"><animate attributeName="stroke-dashoffset" dur="16s" repeatCount="indefinite" values="60;60;-1740;-1740" keyTimes="0;0.500;0.840;1" calcMode="spline" keySplines="0 0 1 1;0.37 0 0.63 1;0 0 1 1"/></path>
<path d="M 1538 -40 C 1530 420 1548 640 1542 1040" fill="none" stroke="#d6c4a8" stroke-width="1.4" opacity="0.38"/>
<path d="M 1538 -40 C 1530 420 1548 640 1542 1040" pathLength="1600" fill="none" stroke="#d6c4a8" stroke-width="1.6" stroke-linecap="round" stroke-dasharray="60 1740" stroke-dashoffset="-1740" opacity="0.65"><animate attributeName="stroke-dashoffset" dur="16s" repeatCount="indefinite" values="-1740;-1740;60;60" keyTimes="0;0.160;0.500;1" calcMode="spline" keySplines="0 0 1 1;0.37 0 0.63 1;0 0 1 1"/></path>
<g>
<animateTransform attributeName="transform" type="rotate" dur="24s" repeatCount="indefinite" values="-0.3 800 500;0.3 800 500;-0.3 800 500" calcMode="spline" keySplines="0.37 0 0.63 1;0.37 0 0.63 1"/>
<path d="M -50 53.7 C 520 76.8 1080 68 1650 52.1" fill="none" stroke="#f6f3ee" stroke-width="1" opacity="0.29"/>
<path d="M -50 53.7 C 520 76.8 1080 68 1650 52.1" pathLength="1600" fill="none" stroke="#f6f3ee" stroke-width="1.6" stroke-linecap="round" stroke-dasharray="70 1730" stroke-dashoffset="70" opacity="0.54"><animate attributeName="stroke-dashoffset" dur="16s" repeatCount="indefinite" values="70;70;-1730;-1730" keyTimes="0;0.020;0.360;1" calcMode="spline" keySplines="0 0 1 1;0.37 0 0.63 1;0 0 1 1"/></path>
<path d="M -50 67.6 C 520 45.9 1080 83 1650 67.1" fill="none" stroke="#f6f3ee" stroke-width="1" opacity="0.1"/>
<path d="M -50 67.6 C 520 45.9 1080 83 1650 67.1" pathLength="1600" fill="none" stroke="#f6f3ee" stroke-width="1.6" stroke-linecap="round" stroke-dasharray="70 1730" stroke-dashoffset="70" opacity="0.54"><animate attributeName="stroke-dashoffset" dur="16s" repeatCount="indefinite" values="70;70;-1730;-1730" keyTimes="0;0.044;0.384;1" calcMode="spline" keySplines="0 0 1 1;0.37 0 0.63 1;0 0 1 1"/></path>
<path d="M -50 82 C 520 59.1 1080 104.7 1650 89.7" fill="none" stroke="#f6f3ee" stroke-width="1.5" opacity="0.77"><animate attributeName="d" dur="8.4s" repeatCount="indefinite" values="M -50 82 C 520 59.1 1080 104.7 1650 89.7;M -50 82 C 520 66.1 1080 98.7 1650 89.7;M -50 82 C 520 53.1 1080 111.7 1650 89.7;M -50 82 C 520 59.1 1080 104.7 1650 89.7" calcMode="spline" keySplines="0.37 0 0.63 1;0.37 0 0.63 1;0.37 0 0.63 1"/></path>
<path d="M -50 82 C 520 59.1 1080 104.7 1650 89.7" pathLength="1600" fill="none" stroke="#f6f3ee" stroke-width="1.6" stroke-linecap="round" stroke-dasharray="110 1690" stroke-dashoffset="110" opacity="0.85"><animate attributeName="stroke-dashoffset" dur="16s" repeatCount="indefinite" values="110;110;-1690;-1690" keyTimes="0;0.068;0.408;1" calcMode="spline" keySplines="0 0 1 1;0.37 0 0.63 1;0 0 1 1"/></path>
<path d="M -50 92.3 C 520 112.7 1080 112.2 1650 100.7" fill="none" stroke="#f6f3ee" stroke-width="1" opacity="0.09"/>
<path d="M -50 92.3 C 520 112.7 1080 112.2 1650 100.7" pathLength="1600" fill="none" stroke="#f6f3ee" stroke-width="1.6" stroke-linecap="round" stroke-dasharray="70 1730" stroke-dashoffset="70" opacity="0.39"><animate attributeName="stroke-dashoffset" dur="16s" repeatCount="indefinite" values="70;70;-1730;-1730" keyTimes="0;0.092;0.432;1" calcMode="spline" keySplines="0 0 1 1;0.37 0 0.63 1;0 0 1 1"/></path>
<path d="M -50 111.3 C 520 95.1 1080 138.2 1650 125.9" fill="none" stroke="#f6f3ee" stroke-width="1" opacity="0.21"/>
<path d="M -50 111.3 C 520 95.1 1080 138.2 1650 125.9" pathLength="1600" fill="none" stroke="#f6f3ee" stroke-width="1.6" stroke-linecap="round" stroke-dasharray="70 1730" stroke-dashoffset="70" opacity="0.47"><animate attributeName="stroke-dashoffset" dur="16s" repeatCount="indefinite" values="70;70;-1730;-1730" keyTimes="0;0.116;0.456;1" calcMode="spline" keySplines="0 0 1 1;0.37 0 0.63 1;0 0 1 1"/></path>
<path d="M -50 119.9 C 520 102.3 1080 106.6 1650 96.5" fill="none" stroke="#f6f3ee" stroke-width="1" opacity="0.1"/>
<path d="M -50 119.9 C 520 102.3 1080 106.6 1650 96.5" pathLength="1600" fill="none" stroke="#f6f3ee" stroke-width="1.6" stroke-linecap="round" stroke-dasharray="70 1730" stroke-dashoffset="70" opacity="0.51"><animate attributeName="stroke-dashoffset" dur="16s" repeatCount="indefinite" values="70;70;-1730;-1730" keyTimes="0;0.140;0.480;1" calcMode="spline" keySplines="0 0 1 1;0.37 0 0.63 1;0 0 1 1"/></path>
<path d="M -50 133.7 C 520 146.1 1080 127.9 1650 119.4" fill="none" stroke="#f6f3ee" stroke-width="1" opacity="0.12"/>
<path d="M -50 148.8 C 520 131.1 1080 172.3 1650 158.5" fill="none" stroke="#f6f3ee" stroke-width="1.5" opacity="0.66"><animate attributeName="d" dur="8.4s" repeatCount="indefinite" values="M -50 148.8 C 520 131.1 1080 172.3 1650 158.5;M -50 148.8 C 520 138.1 1080 166.3 1650 158.5;M -50 148.8 C 520 125.1 1080 179.3 1650 158.5;M -50 148.8 C 520 131.1 1080 172.3 1650 158.5" calcMode="spline" keySplines="0.37 0 0.63 1;0.37 0 0.63 1;0.37 0 0.63 1"/></path>
<path d="M -50 148.8 C 520 131.1 1080 172.3 1650 158.5" pathLength="1600" fill="none" stroke="#f6f3ee" stroke-width="1.6" stroke-linecap="round" stroke-dasharray="110 1690" stroke-dashoffset="110" opacity="0.85"><animate attributeName="stroke-dashoffset" dur="16s" repeatCount="indefinite" values="110;110;-1690;-1690" keyTimes="0;0.188;0.528;1" calcMode="spline" keySplines="0 0 1 1;0.37 0 0.63 1;0 0 1 1"/></path>
<path d="M -50 162.8 C 520 144.3 1080 177.3 1650 165.3" fill="none" stroke="#f6f3ee" stroke-width="1" opacity="0.26"/>
<path d="M -50 162.8 C 520 144.3 1080 177.3 1650 165.3" pathLength="1600" fill="none" stroke="#f6f3ee" stroke-width="1.6" stroke-linecap="round" stroke-dasharray="70 1730" stroke-dashoffset="70" opacity="0.47"><animate attributeName="stroke-dashoffset" dur="16s" repeatCount="indefinite" values="70;70;-1730;-1730" keyTimes="0;0.212;0.552;1" calcMode="spline" keySplines="0 0 1 1;0.37 0 0.63 1;0 0 1 1"/></path>
<path d="M -50 179.4 C 520 201.5 1080 212 1650 195.2" fill="none" stroke="#f6f3ee" stroke-width="1" opacity="0.16"/>
<path d="M -50 179.4 C 520 201.5 1080 212 1650 195.2" pathLength="1600" fill="none" stroke="#f6f3ee" stroke-width="1.6" stroke-linecap="round" stroke-dasharray="70 1730" stroke-dashoffset="70" opacity="0.55"><animate attributeName="stroke-dashoffset" dur="16s" repeatCount="indefinite" values="70;70;-1730;-1730" keyTimes="0;0.236;0.576;1" calcMode="spline" keySplines="0 0 1 1;0.37 0 0.63 1;0 0 1 1"/></path>
<path d="M -50 188.9 C 520 168.4 1080 185.9 1650 174.1" fill="none" stroke="#f6f3ee" stroke-width="1" opacity="0.09"/>
<path d="M -50 205.2 C 520 191.4 1080 206.7 1650 197.2" fill="none" stroke="#f6f3ee" stroke-width="1" opacity="0.12"/>
<path d="M -50 205.2 C 520 191.4 1080 206.7 1650 197.2" pathLength="1600" fill="none" stroke="#f6f3ee" stroke-width="1.6" stroke-linecap="round" stroke-dasharray="70 1730" stroke-dashoffset="70" opacity="0.49"><animate attributeName="stroke-dashoffset" dur="16s" repeatCount="indefinite" values="70;70;-1730;-1730" keyTimes="0;0.284;0.624;1" calcMode="spline" keySplines="0 0 1 1;0.37 0 0.63 1;0 0 1 1"/></path>
<path d="M -50 219.9 C 520 232 1080 237.2 1650 229.8" fill="none" stroke="#f6f3ee" stroke-width="1.5" opacity="0.7"><animate attributeName="d" dur="6.8s" repeatCount="indefinite" values="M -50 219.9 C 520 232 1080 237.2 1650 229.8;M -50 219.9 C 520 239 1080 231.2 1650 229.8;M -50 219.9 C 520 226 1080 244.2 1650 229.8;M -50 219.9 C 520 232 1080 237.2 1650 229.8" calcMode="spline" keySplines="0.37 0 0.63 1;0.37 0 0.63 1;0.37 0 0.63 1"/></path>
<path d="M -50 219.9 C 520 232 1080 237.2 1650 229.8" pathLength="1600" fill="none" stroke="#f6f3ee" stroke-width="1.6" stroke-linecap="round" stroke-dasharray="110 1690" stroke-dashoffset="110" opacity="0.85"><animate attributeName="stroke-dashoffset" dur="16s" repeatCount="indefinite" values="110;110;-1690;-1690" keyTimes="0;0.308;0.648;1" calcMode="spline" keySplines="0 0 1 1;0.37 0 0.63 1;0 0 1 1"/></path>
<path d="M -50 233.3 C 520 221 1080 236.5 1650 228.1" fill="none" stroke="#f6f3ee" stroke-width="1" opacity="0.11"/>
<path d="M -50 233.3 C 520 221 1080 236.5 1650 228.1" pathLength="1600" fill="none" stroke="#f6f3ee" stroke-width="1.6" stroke-linecap="round" stroke-dasharray="70 1730" stroke-dashoffset="70" opacity="0.54"><animate attributeName="stroke-dashoffset" dur="16s" repeatCount="indefinite" values="70;70;-1730;-1730" keyTimes="0;0.332;0.672;1" calcMode="spline" keySplines="0 0 1 1;0.37 0 0.63 1;0 0 1 1"/></path>
<circle cx="14" cy="53.7" r="2.0" fill="#f6f3ee" opacity="0.15"/>
<circle cx="1586" cy="52.2" r="2.0" fill="#f6f3ee" opacity="0.18"/>
<circle cx="14" cy="82.3" r="2.2" fill="#f6f3ee" opacity="0.16"/>
<circle cx="14" cy="111.8" r="2.0" fill="#f6f3ee" opacity="0.21"/>
<circle cx="1586" cy="125.3" r="2.0" fill="#f6f3ee" opacity="0.22"/>
<circle cx="14" cy="133.2" r="1.9" fill="#f6f3ee" opacity="0.20"/>
<circle cx="14" cy="162.9" r="2.7" fill="#f6f3ee" opacity="0.30"/>
<circle cx="1586" cy="165.2" r="2.7" fill="#f6f3ee" opacity="0.24"/>
<circle cx="14" cy="188.3" r="2.5" fill="#f6f3ee" opacity="0.24"/>
<circle cx="14" cy="220.3" r="1.9" fill="#f6f3ee" opacity="0.16"/>
<circle cx="1586" cy="229.5" r="1.9" fill="#f6f3ee" opacity="0.15"/>
<path d="M 6 233 h 12" stroke="#f6f3ee" stroke-width="1" opacity="0.18"/>
<path d="M 1582 892 h 12" stroke="#f6f3ee" stroke-width="1" opacity="0.18"/>
<path d="M 6 243 h 12" stroke="#f6f3ee" stroke-width="1" opacity="0.18"/>
<path d="M 1582 760 h 12" stroke="#f6f3ee" stroke-width="1" opacity="0.18"/>
<path d="M 6 181 h 12" stroke="#f6f3ee" stroke-width="1" opacity="0.18"/>
<path d="M 1582 850 h 12" stroke="#f6f3ee" stroke-width="1" opacity="0.18"/>
<path d="M 6 199 h 12" stroke="#f6f3ee" stroke-width="1" opacity="0.18"/>
<path d="M 1582 818 h 12" stroke="#f6f3ee" stroke-width="1" opacity="0.18"/>
<path d="M 6 250 h 12" stroke="#f6f3ee" stroke-width="1" opacity="0.18"/>
<path d="M 1582 771 h 12" stroke="#f6f3ee" stroke-width="1" opacity="0.18"/>
<path d="M 6 164 h 12" stroke="#f6f3ee" stroke-width="1" opacity="0.18"/>
<path d="M 1582 899 h 12" stroke="#f6f3ee" stroke-width="1" opacity="0.18"/>
<path d="M 6 231 h 12" stroke="#f6f3ee" stroke-width="1" opacity="0.18"/>
<path d="M 1582 899 h 12" stroke="#f6f3ee" stroke-width="1" opacity="0.18"/>
<path d="M 6 194 h 12" stroke="#f6f3ee" stroke-width="1" opacity="0.18"/>
<path d="M 1582 910 h 12" stroke="#f6f3ee" stroke-width="1" opacity="0.18"/>
</g>
<g>
<path d="M -50 362.5 C 520 404.7 1080 347.1 1650 378.1" fill="none" stroke="#f6f3ee" stroke-width="1" opacity="0.06"/>
<path d="M -50 495.8 C 520 539.3 1080 480.1 1650 511.5" fill="none" stroke="#f6f3ee" stroke-width="1" opacity="0.07"/>
<path d="M -50 620.6 C 520 659.2 1080 601.6 1650 635.7" fill="none" stroke="#f6f3ee" stroke-width="1" opacity="0.06"/>
<path d="M -50 264 C 520 282 1080 286 1650 272" fill="none" stroke="#f6f3ee" stroke-width="1" opacity="0.09"/>
<path d="M -50 742 C 520 758 1080 746 1650 734" fill="none" stroke="#f6f3ee" stroke-width="1" opacity="0.09"/>
<path d="M -50 498 C 520 538 1080 476 1650 512" pathLength="1600" fill="none" stroke="#f6f3ee" stroke-width="1.6" stroke-linecap="round" stroke-dasharray="70 1730" stroke-dashoffset="70" opacity="0.18"><animate attributeName="stroke-dashoffset" dur="16s" repeatCount="indefinite" values="70;70;-1730;-1730" keyTimes="0;0.550;0.890;1" calcMode="spline" keySplines="0 0 1 1;0.37 0 0.63 1;0 0 1 1"/></path>
</g>
<g>
<animateTransform attributeName="transform" type="rotate" dur="19s" repeatCount="indefinite" values="0.28 800 500;-0.28 800 500;0.28 800 500" calcMode="spline" keySplines="0.37 0 0.63 1;0.37 0 0.63 1"/>
<path d="M -50 753.4 C 520 773.2 1080 773.8 1650 761.4" fill="none" stroke="#f6f3ee" stroke-width="1" opacity="0.27"/>
<path d="M -50 753.4 C 520 773.2 1080 773.8 1650 761.4" pathLength="1600" fill="none" stroke="#f6f3ee" stroke-width="1.6" stroke-linecap="round" stroke-dasharray="70 1730" stroke-dashoffset="70" opacity="0.39"><animate attributeName="stroke-dashoffset" dur="16s" repeatCount="indefinite" values="70;70;-1730;-1730" keyTimes="0;0.340;0.680;1" calcMode="spline" keySplines="0 0 1 1;0.37 0 0.63 1;0 0 1 1"/></path>
<path d="M -50 767.1 C 520 754.8 1080 773.8 1650 763.8" fill="none" stroke="#f6f3ee" stroke-width="1" opacity="0.14"/>
<path d="M -50 767.1 C 520 754.8 1080 773.8 1650 763.8" pathLength="1600" fill="none" stroke="#f6f3ee" stroke-width="1.6" stroke-linecap="round" stroke-dasharray="70 1730" stroke-dashoffset="70" opacity="0.55"><animate attributeName="stroke-dashoffset" dur="16s" repeatCount="indefinite" values="70;70;-1730;-1730" keyTimes="0;0.364;0.704;1" calcMode="spline" keySplines="0 0 1 1;0.37 0 0.63 1;0 0 1 1"/></path>
<path d="M -50 780.9 C 520 759.9 1080 786.3 1650 774.3" fill="none" stroke="#f6f3ee" stroke-width="1" opacity="0.16"/>
<path d="M -50 798.6 C 520 816.2 1080 801.4 1650 789.3" fill="none" stroke="#f6f3ee" stroke-width="1.5" opacity="0.73"><animate attributeName="d" dur="7.6s" repeatCount="indefinite" values="M -50 798.6 C 520 816.2 1080 801.4 1650 789.3;M -50 798.6 C 520 823.2 1080 795.4 1650 789.3;M -50 798.6 C 520 810.2 1080 808.4 1650 789.3;M -50 798.6 C 520 816.2 1080 801.4 1650 789.3" calcMode="spline" keySplines="0.37 0 0.63 1;0.37 0 0.63 1;0.37 0 0.63 1"/></path>
<path d="M -50 798.6 C 520 816.2 1080 801.4 1650 789.3" pathLength="1600" fill="none" stroke="#f6f3ee" stroke-width="1.6" stroke-linecap="round" stroke-dasharray="110 1690" stroke-dashoffset="110" opacity="0.85"><animate attributeName="stroke-dashoffset" dur="16s" repeatCount="indefinite" values="110;110;-1690;-1690" keyTimes="0;0.412;0.752;1" calcMode="spline" keySplines="0 0 1 1;0.37 0 0.63 1;0 0 1 1"/></path>
<path d="M -50 808.5 C 520 787.9 1080 836.4 1650 820.4" fill="none" stroke="#f6f3ee" stroke-width="1" opacity="0.31"/>
<path d="M -50 808.5 C 520 787.9 1080 836.4 1650 820.4" pathLength="1600" fill="none" stroke="#f6f3ee" stroke-width="1.6" stroke-linecap="round" stroke-dasharray="70 1730" stroke-dashoffset="-1730" opacity="0.5"><animate attributeName="stroke-dashoffset" dur="16s" repeatCount="indefinite" values="-1730;-1730;70;70" keyTimes="0;0.436;0.776;1" calcMode="spline" keySplines="0 0 1 1;0.37 0 0.63 1;0 0 1 1"/></path>
<path d="M -50 821.7 C 520 801.8 1080 834.5 1650 821.7" fill="none" stroke="#f6f3ee" stroke-width="1" opacity="0.12"/>
<path d="M -50 821.7 C 520 801.8 1080 834.5 1650 821.7" pathLength="1600" fill="none" stroke="#f6f3ee" stroke-width="1.6" stroke-linecap="round" stroke-dasharray="70 1730" stroke-dashoffset="70" opacity="0.46"><animate attributeName="stroke-dashoffset" dur="16s" repeatCount="indefinite" values="70;70;-1730;-1730" keyTimes="0;0.460;0.800;1" calcMode="spline" keySplines="0 0 1 1;0.37 0 0.63 1;0 0 1 1"/></path>
<path d="M -50 840.4 C 520 855.5 1080 867.2 1650 855" fill="none" stroke="#f6f3ee" stroke-width="1" opacity="0.13"/>
<path d="M -50 849.5 C 520 836 1080 858.9 1650 848.4" fill="none" stroke="#f6f3ee" stroke-width="1" opacity="0.13"/>
<path d="M -50 849.5 C 520 836 1080 858.9 1650 848.4" pathLength="1600" fill="none" stroke="#f6f3ee" stroke-width="1.6" stroke-linecap="round" stroke-dasharray="70 1730" stroke-dashoffset="70" opacity="0.47"><animate attributeName="stroke-dashoffset" dur="16s" repeatCount="indefinite" values="70;70;-1730;-1730" keyTimes="0;0.508;0.848;1" calcMode="spline" keySplines="0 0 1 1;0.37 0 0.63 1;0 0 1 1"/></path>
<path d="M -50 862.4 C 520 842.5 1080 896.7 1650 884" fill="none" stroke="#f6f3ee" stroke-width="1.5" opacity="0.63"><animate attributeName="d" dur="6.8s" repeatCount="indefinite" values="M -50 862.4 C 520 842.5 1080 896.7 1650 884;M -50 862.4 C 520 849.5 1080 890.7 1650 884;M -50 862.4 C 520 836.5 1080 903.7 1650 884;M -50 862.4 C 520 842.5 1080 896.7 1650 884" calcMode="spline" keySplines="0.37 0 0.63 1;0.37 0 0.63 1;0.37 0 0.63 1"/></path>
<path d="M -50 862.4 C 520 842.5 1080 896.7 1650 884" pathLength="1600" fill="none" stroke="#f6f3ee" stroke-width="1.6" stroke-linecap="round" stroke-dasharray="110 1690" stroke-dashoffset="110" opacity="0.85"><animate attributeName="stroke-dashoffset" dur="16s" repeatCount="indefinite" values="110;110;-1690;-1690" keyTimes="0;0.532;0.872;1" calcMode="spline" keySplines="0 0 1 1;0.37 0 0.63 1;0 0 1 1"/></path>
<path d="M -50 880 C 520 895 1080 885.1 1650 876.5" fill="none" stroke="#f6f3ee" stroke-width="1" opacity="0.12"/>
<path d="M -50 880 C 520 895 1080 885.1 1650 876.5" pathLength="1600" fill="none" stroke="#f6f3ee" stroke-width="1.6" stroke-linecap="round" stroke-dasharray="70 1730" stroke-dashoffset="-1730" opacity="0.42"><animate attributeName="stroke-dashoffset" dur="16s" repeatCount="indefinite" values="-1730;-1730;70;70" keyTimes="0;0.556;0.896;1" calcMode="spline" keySplines="0 0 1 1;0.37 0 0.63 1;0 0 1 1"/></path>
<path d="M -50 889.5 C 520 870 1080 910.6 1650 895.7" fill="none" stroke="#f6f3ee" stroke-width="1" opacity="0.14"/>
<path d="M -50 904.8 C 520 892.4 1080 915 1650 906.1" fill="none" stroke="#f6f3ee" stroke-width="1.5" opacity="0.67"><animate attributeName="d" dur="8.4s" repeatCount="indefinite" values="M -50 904.8 C 520 892.4 1080 915 1650 906.1;M -50 904.8 C 520 899.4 1080 909 1650 906.1;M -50 904.8 C 520 886.4 1080 922 1650 906.1;M -50 904.8 C 520 892.4 1080 915 1650 906.1" calcMode="spline" keySplines="0.37 0 0.63 1;0.37 0 0.63 1;0.37 0 0.63 1"/></path>
<path d="M -50 904.8 C 520 892.4 1080 915 1650 906.1" pathLength="1600" fill="none" stroke="#f6f3ee" stroke-width="1.6" stroke-linecap="round" stroke-dasharray="110 1690" stroke-dashoffset="110" opacity="0.85"><animate attributeName="stroke-dashoffset" dur="16s" repeatCount="indefinite" values="110;110;-1690;-1690" keyTimes="0;0.604;0.944;1" calcMode="spline" keySplines="0 0 1 1;0.37 0 0.63 1;0 0 1 1"/></path>
<path d="M -50 919.6 C 520 933.5 1080 944.8 1650 936.6" fill="none" stroke="#f6f3ee" stroke-width="1" opacity="0.28"/>
<path d="M -50 919.6 C 520 933.5 1080 944.8 1650 936.6" pathLength="1600" fill="none" stroke="#f6f3ee" stroke-width="1.6" stroke-linecap="round" stroke-dasharray="70 1730" stroke-dashoffset="70" opacity="0.46"><animate attributeName="stroke-dashoffset" dur="16s" repeatCount="indefinite" values="70;70;-1730;-1730" keyTimes="0;0.628;0.968;1" calcMode="spline" keySplines="0 0 1 1;0.37 0 0.63 1;0 0 1 1"/></path>
<path d="M -50 935.3 C 520 915.7 1080 962.4 1650 950.3" fill="none" stroke="#f6f3ee" stroke-width="1" opacity="0.16"/>
<path d="M -50 935.3 C 520 915.7 1080 962.4 1650 950.3" pathLength="1600" fill="none" stroke="#f6f3ee" stroke-width="1.6" stroke-linecap="round" stroke-dasharray="70 1730" stroke-dashoffset="70" opacity="0.44"><animate attributeName="stroke-dashoffset" dur="16s" repeatCount="indefinite" values="70;70;-1730;-1730" keyTimes="0;0.652;0.970;1" calcMode="spline" keySplines="0 0 1 1;0.37 0 0.63 1;0 0 1 1"/></path>
<circle cx="14" cy="767.0" r="1.9" fill="#f6f3ee" opacity="0.24"/>
<circle cx="14" cy="798.2" r="2.3" fill="#f6f3ee" opacity="0.26"/>
<circle cx="1586" cy="789.7" r="2.3" fill="#f6f3ee" opacity="0.19"/>
<circle cx="14" cy="821.7" r="2.7" fill="#f6f3ee" opacity="0.22"/>
<circle cx="14" cy="849.4" r="2.0" fill="#f6f3ee" opacity="0.21"/>
<circle cx="1586" cy="848.5" r="2.0" fill="#f6f3ee" opacity="0.18"/>
<circle cx="14" cy="879.9" r="2.4" fill="#f6f3ee" opacity="0.27"/>
<circle cx="14" cy="904.9" r="2.6" fill="#f6f3ee" opacity="0.18"/>
<circle cx="1586" cy="906.0" r="2.6" fill="#f6f3ee" opacity="0.18"/>
<circle cx="14" cy="935.8" r="2.0" fill="#f6f3ee" opacity="0.29"/>
</g>
<path d="M 144 175 H 156 M 150 169 V 181" stroke="#f6f3ee" stroke-width="1" opacity="0.14" fill="none"/>
<path d="M 249 862 H 261 M 255 856 V 868" stroke="#f6f3ee" stroke-width="1" opacity="0.13" fill="none"/>
<path d="M 1456 148 H 1468 M 1462 142 V 154" stroke="#f6f3ee" stroke-width="1" opacity="0.15" fill="none"/>
<path d="M 1342 884 H 1354 M 1348 878 V 890" stroke="#f6f3ee" stroke-width="1" opacity="0.19" fill="none"/>
<path d="M 90 540 H 102 M 96 534 V 546" stroke="#f6f3ee" stroke-width="1" opacity="0.12" fill="none"/>
<path d="M 1502 660 H 1514 M 1508 654 V 666" stroke="#f6f3ee" stroke-width="1" opacity="0.13" fill="none"/>
</svg>