<svg xmlns="http://www.w3.org/2000/svg" viewBox="0 0 1600 1000" preserveAspectRatio="xMidYMid slice">
  <title>Mycelium Signal</title>
  <desc>Organic-tech network: branching curves grow from edges toward a calm center, light pulses travel the branches, nodes breathe.</desc>
  <defs>
    <pattern id="tone" width="26" height="26" patternUnits="userSpaceOnUse">
      <circle cx="13" cy="13" r="1" fill="#f6f3ee"/>
    </pattern>
    <radialGradient id="vig" cx="50%" cy="50%" r="75%">
      <stop offset="0.55" stop-color="#100e0b" stop-opacity="0"/>
      <stop offset="1" stop-color="#100e0b" stop-opacity="0.55"/>
    </radialGradient>
  </defs>

  <rect width="1600" height="1000" fill="#2a2824"/>
  <rect width="1600" height="1000" fill="url(#tone)" opacity="0.06"/>
  <rect width="1600" height="1000" fill="url(#vig)"/>

  <!-- WEST mycelium: base branches -->
  <g fill="none" stroke="#f6f3ee" stroke-width="1" stroke-linecap="round">
    <animate attributeName="opacity" values="0.9;1;0.9" dur="19s" repeatCount="indefinite"/>
    <g stroke-opacity="0.16">
      <path d="M -40 0 C 60 25 140 55 215 130"/>
      <path d="M 215 130 C 195 190 175 250 150 300"/>
      <path d="M 800 -30 C 795 60 790 140 800 220"/>
      <path d="M 0 1040 C 60 990 130 940 205 860"/>
      <path d="M 205 860 C 255 825 310 790 360 745"/>
      <path d="M 360 745 C 300 720 230 675 160 620"/>
      <path d="M -30 505 C 45 490 95 478 140 468"/>
      <path d="M 140 468 C 190 470 245 485 300 505"/>
    </g>
    <g stroke-opacity="0.11">
      <path d="M 150 300 C 200 345 270 370 330 395"/>
      <path d="M 330 395 C 365 435 385 480 395 525"/>
      <path d="M 360 745 C 345 700 340 655 330 610"/>
      <path d="M 205 860 C 260 860 330 855 420 840"/>
      <path d="M 420 840 C 455 880 480 920 495 960"/>
      <path d="M 300 505 C 345 525 380 545 405 570"/>
      <path d="M 140 468 C 130 520 140 570 160 620"/>
      <path d="M 800 220 C 750 205 700 185 655 160"/>
      <path d="M 800 220 C 850 208 895 185 935 160"/>
      <path d="M 800 1030 C 805 940 810 860 800 780"/>
      <path d="M 800 780 C 750 795 700 815 650 840"/>
      <path d="M 800 780 C 850 792 895 815 940 840"/>
      <path d="M 650 840 C 575 855 500 850 420 840"/>
    </g>
    <g stroke-opacity="0.08">
      <path d="M 365 235 C 400 205 450 165 520 150"/>
      <path d="M 655 160 C 615 142 570 146 520 150"/>
      <path d="M 935 160 C 985 135 1040 125 1090 132"/>
      <path d="M 1090 132 C 1115 125 1140 132 1160 150"/>
      <path d="M 940 840 C 1000 858 1090 856 1180 850"/>
    </g>
    <g stroke-opacity="0.065">
      <path d="M 150 300 C 110 335 70 380 45 430"/>
      <path d="M 215 130 C 190 100 160 70 120 45"/>
      <path d="M 140 468 C 118 435 95 400 78 362"/>
    </g>
    <g stroke="#d6c4a8" stroke-opacity="0.13">
      <path d="M 215 130 C 265 175 320 205 365 235"/>
      <path d="M 205 860 C 260 860 330 855 420 840"/>
    </g>
  </g>

  <!-- EAST mycelium: base branches -->
  <g fill="none" stroke="#f6f3ee" stroke-width="1" stroke-linecap="round">
    <animate attributeName="opacity" values="1;0.9;1" dur="23s" repeatCount="indefinite"/>
    <g stroke-opacity="0.16">
      <path d="M 1640 0 C 1540 25 1460 60 1385 120"/>
      <path d="M 1385 120 C 1405 180 1425 240 1450 300"/>
      <path d="M 1640 1000 C 1545 975 1465 940 1395 870"/>
      <path d="M 1395 870 C 1345 835 1295 800 1240 750"/>
      <path d="M 1630 505 C 1555 490 1505 478 1460 468"/>
      <path d="M 1460 468 C 1410 470 1355 485 1300 505"/>
    </g>
    <g stroke-opacity="0.11">
      <path d="M 1235 240 C 1200 215 1175 185 1160 150"/>
      <path d="M 1450 300 C 1400 340 1335 370 1270 395"/>
      <path d="M 1270 395 C 1240 435 1220 480 1212 525"/>
      <path d="M 1395 870 C 1330 862 1255 858 1180 850"/>
      <path d="M 1240 750 C 1252 705 1258 655 1262 600"/>
      <path d="M 1180 850 C 1145 885 1115 925 1100 965"/>
      <path d="M 1300 505 C 1255 525 1220 545 1195 570"/>
      <path d="M 1460 468 C 1478 520 1470 570 1445 620"/>
    </g>
    <g stroke-opacity="0.08">
      <path d="M 1460 468 C 1440 420 1425 370 1415 315"/>
    </g>
    <g stroke-opacity="0.065">
      <path d="M 1385 120 C 1410 95 1445 70 1485 50"/>
      <path d="M 935 160 C 940 120 950 80 965 40"/>
    </g>
    <g stroke="#d6c4a8" stroke-opacity="0.13">
      <path d="M 1385 120 C 1335 165 1285 210 1235 240"/>
      <path d="M 1240 750 C 1252 705 1258 655 1262 600"/>
    </g>
  </g>

  <!-- SIGNAL PULSES: dash trains travel full branch length per cycle (seamless) -->
  <g fill="none" stroke="#f6f3ee" stroke-width="1.6" stroke-linecap="round">
    <path d="M -40 0 C 60 25 140 55 215 130 C 265 175 320 205 365 235" pathLength="1000" stroke-opacity="0.7" stroke-dasharray="70 930">
      <animate attributeName="stroke-dashoffset" from="1000" to="0" dur="16s" begin="-3s" repeatCount="indefinite"/>
    </path>
    <path d="M 215 130 C 195 190 175 250 150 300 C 200 345 270 370 330 395 C 365 435 385 480 395 525" pathLength="1000" stroke-opacity="0.6" stroke-dasharray="55 945">
      <animate attributeName="stroke-dashoffset" from="1000" to="0" dur="19s" begin="-11s" repeatCount="indefinite"/>
    </path>
    <path d="M 800 -30 C 795 60 790 140 800 220" pathLength="1000" stroke="#d6c4a8" stroke-opacity="0.7" stroke-dasharray="60 940">
      <animate attributeName="stroke-dashoffset" from="1000" to="0" dur="10s" begin="-6s" repeatCount="indefinite"/>
    </path>
    <path d="M 1640 0 C 1540 25 1460 60 1385 120 C 1335 165 1285 210 1235 240" pathLength="1000" stroke-opacity="0.7" stroke-dasharray="70 930">
      <animate attributeName="stroke-dashoffset" from="1000" to="0" dur="17s" begin="-8s" repeatCount="indefinite"/>
    </path>
    <path d="M 1640 1000 C 1545 975 1465 940 1395 870 C 1345 835 1295 800 1240 750 C 1252 705 1258 655 1262 600" pathLength="1000" stroke="#d6c4a8" stroke-opacity="0.75" stroke-dasharray="65 935">
      <animate attributeName="stroke-dashoffset" from="1000" to="0" dur="21s" begin="-5s" repeatCount="indefinite"/>
    </path>
    <path d="M 0 1040 C 60 990 130 940 205 860 C 255 825 310 790 360 745 C 345 700 340 655 330 610" pathLength="1000" stroke-opacity="0.65" stroke-dasharray="60 940">
      <animate attributeName="stroke-dashoffset" from="1000" to="0" dur="20s" begin="-13s" repeatCount="indefinite"/>
    </path>
    <path d="M 800 1030 C 805 940 810 860 800 780" pathLength="1000" stroke-opacity="0.7" stroke-dasharray="50 950">
      <animate attributeName="stroke-dashoffset" from="1000" to="0" dur="9s" begin="-2s" repeatCount="indefinite"/>
    </path>
    <path d="M -30 505 C 45 490 95 478 140 468 C 190 470 245 485 300 505 C 345 525 380 545 405 570" pathLength="1000" stroke="#d6c4a8" stroke-opacity="0.7" stroke-dasharray="58 942">
      <animate attributeName="stroke-dashoffset" from="1000" to="0" dur="14s" begin="-9s" repeatCount="indefinite"/>
    </path>
    <path d="M 1630 505 C 1555 490 1505 478 1460 468 C 1410 470 1355 485 1300 505 C 1255 525 1220 545 1195 570" pathLength="1000" stroke-opacity="0.65" stroke-dasharray="58 942">
      <animate attributeName="stroke-dashoffset" from="1000" to="0" dur="15s" begin="-1s" repeatCount="indefinite"/>
    </path>
    <path d="M 800 220 C 750 205 700 185 655 160" pathLength="1000" stroke-opacity="0.55" stroke-dasharray="44 956">
      <animate attributeName="stroke-dashoffset" from="0" to="1000" dur="8s" begin="-2.5s" repeatCount="indefinite"/>
    </path>
    <path d="M 330 610 C 340 655 345 700 360 745" pathLength="1000" stroke-opacity="0.55" stroke-dasharray="48 952">
      <animate attributeName="stroke-dashoffset" from="0" to="1000" dur="12s" begin="-4.5s" repeatCount="indefinite"/>
    </path>
    <path d="M 935 160 C 985 135 1040 125 1090 132 C 1115 125 1140 132 1160 150" pathLength="1000" stroke-opacity="0.55" stroke-dasharray="52 948">
      <animate attributeName="stroke-dashoffset" from="1000" to="0" dur="13s" begin="-7s" repeatCount="indefinite"/>
    </path>
    <path d="M 940 840 C 1000 858 1090 856 1180 850" pathLength="1000" stroke-opacity="0.55" stroke-dasharray="50 950">
      <animate attributeName="stroke-dashoffset" from="1000" to="0" dur="12s" begin="-4s" repeatCount="indefinite"/>
    </path>
    <path d="M 365 235 C 400 205 450 165 520 150 C 570 146 615 142 655 160" pathLength="1000" stroke-opacity="0.55" stroke-dasharray="56 944">
      <animate attributeName="stroke-dashoffset" from="1000" to="0" dur="18s" begin="-10s" repeatCount="indefinite"/>
    </path>
  </g>

  <!-- NODES: breathing junctions (staggered) -->
  <g fill="#f6f3ee">
    <circle cx="215" cy="130" r="2.6" opacity="0.4">
      <animate attributeName="r" values="2.4;3.4;2.4" dur="9s" begin="-2.1s" repeatCount="indefinite"/>
      <animate attributeName="opacity" values="0.28;0.55;0.28" dur="9s" begin="-2.1s" repeatCount="indefinite"/>
    </circle>
    <circle cx="150" cy="300" r="2.6" opacity="0.38">
      <animate attributeName="r" values="2.4;3.3;2.4" dur="11s" begin="-5.4s" repeatCount="indefinite"/>
      <animate attributeName="opacity" values="0.26;0.52;0.26" dur="11s" begin="-5.4s" repeatCount="indefinite"/>
    </circle>
    <circle cx="330" cy="395" r="2.4" opacity="0.36">
      <animate attributeName="r" values="2.2;3.1;2.2" dur="8.5s" begin="-1.2s" repeatCount="indefinite"/>
      <animate attributeName="opacity" values="0.25;0.5;0.25" dur="8.5s" begin="-1.2s" repeatCount="indefinite"/>
    </circle>
    <circle cx="395" cy="525" r="1.9" opacity="0.3">
      <animate attributeName="r" values="1.8;2.5;1.8" dur="12s" begin="-6s" repeatCount="indefinite"/>
      <animate attributeName="opacity" values="0.2;0.42;0.2" dur="12s" begin="-6s" repeatCount="indefinite"/>
    </circle>
    <circle cx="45" cy="430" r="1.8" opacity="0.28">
      <animate attributeName="r" values="1.7;2.3;1.7" dur="10s" begin="-3s" repeatCount="indefinite"/>
      <animate attributeName="opacity" values="0.18;0.4;0.18" dur="10s" begin="-3s" repeatCount="indefinite"/>
    </circle>
    <circle cx="520" cy="150" r="2.4" opacity="0.34">
      <animate attributeName="r" values="2.2;3.2;2.2" dur="10.5s" begin="-4.4s" repeatCount="indefinite"/>
      <animate attributeName="opacity" values="0.24;0.48;0.24" dur="10.5s" begin="-4.4s" repeatCount="indefinite"/>
    </circle>
    <circle cx="655" cy="160" r="2.4" opacity="0.34">
      <animate attributeName="r" values="2.2;3.1;2.2" dur="9.5s" begin="-0.8s" repeatCount="indefinite"/>
      <animate attributeName="opacity" values="0.24;0.48;0.24" dur="9.5s" begin="-0.8s" repeatCount="indefinite"/>
    </circle>
    <circle cx="935" cy="160" r="2.4" opacity="0.34">
      <animate attributeName="r" values="2.2;3.2;2.2" dur="12.5s" begin="-7.2s" repeatCount="indefinite"/>
      <animate attributeName="opacity" values="0.24;0.48;0.24" dur="12.5s" begin="-7.2s" repeatCount="indefinite"/>
    </circle>
    <circle cx="1090" cy="132" r="2.2" opacity="0.32">
      <animate attributeName="r" values="2;2.9;2" dur="8s" begin="-3.6s" repeatCount="indefinite"/>
      <animate attributeName="opacity" values="0.22;0.45;0.22" dur="8s" begin="-3.6s" repeatCount="indefinite"/>
    </circle>
    <circle cx="1160" cy="150" r="2.3" opacity="0.32">
      <animate attributeName="r" values="2.1;3;2.1" dur="13s" begin="-9.1s" repeatCount="indefinite"/>
      <animate attributeName="opacity" values="0.22;0.45;0.22" dur="13s" begin="-9.1s" repeatCount="indefinite"/>
    </circle>
    <circle cx="1385" cy="120" r="2.6" opacity="0.4">
      <animate attributeName="r" values="2.4;3.4;2.4" dur="9s" begin="-4.9s" repeatCount="indefinite"/>
      <animate attributeName="opacity" values="0.28;0.55;0.28" dur="9s" begin="-4.9s" repeatCount="indefinite"/>
    </circle>
    <circle cx="1450" cy="300" r="2.5" opacity="0.38">
      <animate attributeName="r" values="2.3;3.3;2.3" dur="10s" begin="-2.8s" repeatCount="indefinite"/>
      <animate attributeName="opacity" values="0.26;0.52;0.26" dur="10s" begin="-2.8s" repeatCount="indefinite"/>
    </circle>
    <circle cx="1270" cy="395" r="2.4" opacity="0.36">
      <animate attributeName="r" values="2.2;3.1;2.2" dur="12s" begin="-8.3s" repeatCount="indefinite"/>
      <animate attributeName="opacity" values="0.25;0.5;0.25" dur="12s" begin="-8.3s" repeatCount="indefinite"/>
    </circle>
    <circle cx="1212" cy="525" r="1.9" opacity="0.3">
      <animate attributeName="r" values="1.8;2.5;1.8" dur="14s" begin="-5s" repeatCount="indefinite"/>
      <animate attributeName="opacity" values="0.2;0.42;0.2" dur="14s" begin="-5s" repeatCount="indefinite"/>
    </circle>
    <circle cx="1460" cy="468" r="2.5" opacity="0.38">
      <animate attributeName="r" values="2.3;3.3;2.3" dur="8.5s" begin="-2.5s" repeatCount="indefinite"/>
      <animate attributeName="opacity" values="0.26;0.52;0.26" dur="8.5s" begin="-2.5s" repeatCount="indefinite"/>
    </circle>
    <circle cx="1300" cy="505" r="2.4" opacity="0.36">
      <animate attributeName="r" values="2.2;3.2;2.2" dur="11.5s" begin="-6.7s" repeatCount="indefinite"/>
      <animate attributeName="opacity" values="0.25;0.5;0.25" dur="11.5s" begin="-6.7s" repeatCount="indefinite"/>
    </circle>
    <circle cx="1195" cy="570" r="2" opacity="0.3">
      <animate attributeName="r" values="1.9;2.6;1.9" dur="9s" begin="-1.9s" repeatCount="indefinite"/>
      <animate attributeName="opacity" values="0.2;0.44;0.2" dur="9s" begin="-1.9s" repeatCount="indefinite"/>
    </circle>
    <circle cx="1445" cy="620" r="2.3" opacity="0.32">
      <animate attributeName="r" values="2.1;3;2.1" dur="13.5s" begin="-10s" repeatCount="indefinite"/>
      <animate attributeName="opacity" values="0.22;0.45;0.22" dur="13.5s" begin="-10s" repeatCount="indefinite"/>
    </circle>
    <circle cx="1415" cy="315" r="2.2" opacity="0.32">
      <animate attributeName="r" values="2;2.9;2" dur="10.5s" begin="-3.3s" repeatCount="indefinite"/>
      <animate attributeName="opacity" values="0.22;0.45;0.22" dur="10.5s" begin="-3.3s" repeatCount="indefinite"/>
    </circle>
    <circle cx="1395" cy="870" r="2.6" opacity="0.4">
      <animate attributeName="r" values="2.4;3.4;2.4" dur="9.5s" begin="-5.7s" repeatCount="indefinite"/>
      <animate attributeName="opacity" values="0.28;0.55;0.28" dur="9.5s" begin="-5.7s" repeatCount="indefinite"/>
    </circle>
    <circle cx="1240" cy="750" r="2.5" opacity="0.38">
      <animate attributeName="r" values="2.3;3.3;2.3" dur="12s" begin="-2.2s" repeatCount="indefinite"/>
      <animate attributeName="opacity" values="0.26;0.52;0.26" dur="12s" begin="-2.2s" repeatCount="indefinite"/>
    </circle>
    <circle cx="1180" cy="850" r="2.4" opacity="0.36">
      <animate attributeName="r" values="2.2;3.1;2.2" dur="8.8s" begin="-6.1s" repeatCount="indefinite"/>
      <animate attributeName="opacity" values="0.25;0.5;0.25" dur="8.8s" begin="-6.1s" repeatCount="indefinite"/>
    </circle>
    <circle cx="650" cy="840" r="2.4" opacity="0.36">
      <animate attributeName="r" values="2.2;3.2;2.2" dur="11s" begin="-3.9s" repeatCount="indefinite"/>
      <animate attributeName="opacity" values="0.25;0.5;0.25" dur="11s" begin="-3.9s" repeatCount="indefinite"/>
    </circle>
    <circle cx="940" cy="840" r="2.4" opacity="0.36">
      <animate attributeName="r" values="2.2;3.1;2.2" dur="9.2s" begin="-7.5s" repeatCount="indefinite"/>
      <animate attributeName="opacity" values="0.25;0.5;0.25" dur="9.2s" begin="-7.5s" repeatCount="indefinite"/>
    </circle>
    <circle cx="1090" cy="855" r="2.3" opacity="0.34">
      <animate attributeName="r" values="2.1;3;2.1" dur="12.8s" begin="-1.5s" repeatCount="indefinite"/>
      <animate attributeName="opacity" values="0.24;0.48;0.24" dur="12.8s" begin="-1.5s" repeatCount="indefinite"/>
    </circle>
    <circle cx="205" cy="860" r="2.6" opacity="0.4">
      <animate attributeName="r" values="2.4;3.4;2.4" dur="10s" begin="-4.2s" repeatCount="indefinite"/>
      <animate attributeName="opacity" values="0.28;0.55;0.28" dur="10s" begin="-4.2s" repeatCount="indefinite"/>
    </circle>
    <circle cx="360" cy="745" r="2.5" opacity="0.38">
      <animate attributeName="r" values="2.3;3.3;2.3" dur="8.6s" begin="-2.9s" repeatCount="indefinite"/>
      <animate attributeName="opacity" values="0.26;0.52;0.26" dur="8.6s" begin="-2.9s" repeatCount="indefinite"/>
    </circle>
    <circle cx="420" cy="840" r="2.4" opacity="0.36">
      <animate attributeName="r" values="2.2;3.2;2.2" dur="11.2s" begin="-8.8s" repeatCount="indefinite"/>
      <animate attributeName="opacity" values="0.25;0.5;0.25" dur="11.2s" begin="-8.8s" repeatCount="indefinite"/>
    </circle>
    <circle cx="140" cy="468" r="2.5" opacity="0.38">
      <animate attributeName="r" values="2.3;3.3;2.3" dur="9.8s" begin="-1.1s" repeatCount="indefinite"/>
      <animate attributeName="opacity" values="0.26;0.52;0.26" dur="9.8s" begin="-1.1s" repeatCount="indefinite"/>
    </circle>
    <circle cx="300" cy="505" r="2.4" opacity="0.36">
      <animate attributeName="r" values="2.2;3.2;2.2" dur="12.2s" begin="-6.3s" repeatCount="indefinite"/>
      <animate attributeName="opacity" values="0.25;0.5;0.25" dur="12.2s" begin="-6.3s" repeatCount="indefinite"/>
    </circle>
    <circle cx="405" cy="570" r="2" opacity="0.3">
      <animate attributeName="r" values="1.9;2.6;1.9" dur="10.2s" begin="-4.6s" repeatCount="indefinite"/>
      <animate attributeName="opacity" values="0.2;0.44;0.2" dur="10.2s" begin="-4.6s" repeatCount="indefinite"/>
    </circle>
    <circle cx="160" cy="620" r="2.3" opacity="0.32">
      <animate attributeName="r" values="2.1;3;2.1" dur="13.2s" begin="-9.7s" repeatCount="indefinite"/>
      <animate attributeName="opacity" values="0.22;0.45;0.22" dur="13.2s" begin="-9.7s" repeatCount="indefinite"/>
    </circle>
    <circle cx="78" cy="362" r="1.8" opacity="0.28">
      <animate attributeName="r" values="1.7;2.3;1.7" dur="9.4s" begin="-3.1s" repeatCount="indefinite"/>
      <animate attributeName="opacity" values="0.18;0.4;0.18" dur="9.4s" begin="-3.1s" repeatCount="indefinite"/>
    </circle>
  </g>

  <!-- SYNAPSES: brighter firing nodes with halos -->
  <g>
    <circle cx="800" cy="220" r="6" fill="none" stroke="#d6c4a8" stroke-width="1" stroke-opacity="0">
      <animate attributeName="r" values="5;7;20" dur="7s" begin="-1.3s" repeatCount="indefinite"/>
      <animate attributeName="stroke-opacity" values="0;0.3;0" keyTimes="0;0.15;1" dur="7s" begin="-1.3s" repeatCount="indefinite"/>
    </circle>
    <circle cx="800" cy="220" r="3.1" fill="#d6c4a8" opacity="0.5">
      <animate attributeName="opacity" values="0.35;0.9;0.45;0.85;0.35" dur="11s" begin="-4s" repeatCount="indefinite"/>
      <animate attributeName="r" values="3;4.2;3.2;4;3" dur="11s" begin="-4s" repeatCount="indefinite"/>
    </circle>
    <circle cx="800" cy="780" r="6" fill="none" stroke="#f6f3ee" stroke-width="1" stroke-opacity="0">
      <animate attributeName="r" values="5;7;20" dur="8s" begin="-3s" repeatCount="indefinite"/>
      <animate attributeName="stroke-opacity" values="0;0.28;0" keyTimes="0;0.15;1" dur="8s" begin="-3s" repeatCount="indefinite"/>
    </circle>
    <circle cx="800" cy="780" r="3.1" fill="#f6f3ee" opacity="0.5">
      <animate attributeName="opacity" values="0.35;0.85;0.45;0.9;0.35" dur="13s" begin="-6s" repeatCount="indefinite"/>
      <animate attributeName="r" values="3;4.2;3.2;4;3" dur="13s" begin="-6s" repeatCount="indefinite"/>
    </circle>
    <circle cx="365" cy="235" r="6" fill="none" stroke="#f6f3ee" stroke-width="1" stroke-opacity="0">
      <animate attributeName="r" values="5;7;18" dur="6.5s" begin="-0.5s" repeatCount="indefinite"/>
      <animate attributeName="stroke-opacity" values="0;0.28;0" keyTimes="0;0.15;1" dur="6.5s" begin="-0.5s" repeatCount="indefinite"/>
    </circle>
    <circle cx="365" cy="235" r="3" fill="#f6f3ee" opacity="0.5">
      <animate attributeName="opacity" values="0.35;0.9;0.45;0.8;0.35" dur="9.5s" begin="-2s" repeatCount="indefinite"/>
      <animate attributeName="r" values="2.9;4;3.1;3.8;2.9" dur="9.5s" begin="-2s" repeatCount="indefinite"/>
    </circle>
    <circle cx="1235" cy="240" r="6" fill="none" stroke="#f6f3ee" stroke-width="1" stroke-opacity="0">
      <animate attributeName="r" values="5;7;18" dur="7.5s" begin="-4s" repeatCount="indefinite"/>
      <animate attributeName="stroke-opacity" values="0;0.28;0" keyTimes="0;0.15;1" dur="7.5s" begin="-4s" repeatCount="indefinite"/>
    </circle>
    <circle cx="1235" cy="240" r="3" fill="#f6f3ee" opacity="0.5">
      <animate attributeName="opacity" values="0.35;0.85;0.45;0.9;0.35" dur="12s" begin="-7s" repeatCount="indefinite"/>
      <animate attributeName="r" values="2.9;4;3.1;3.8;2.9" dur="12s" begin="-7s" repeatCount="indefinite"/>
    </circle>
    <circle cx="330" cy="610" r="6" fill="none" stroke="#f6f3ee" stroke-width="1" stroke-opacity="0">
      <animate attributeName="r" values="5;7;18" dur="6.8s" begin="-2s" repeatCount="indefinite"/>
      <animate attributeName="stroke-opacity" values="0;0.28;0" keyTimes="0;0.15;1" dur="6.8s" begin="-2s" repeatCount="indefinite"/>
    </circle>
    <circle cx="330" cy="610" r="3" fill="#f6f3ee" opacity="0.5">
      <animate attributeName="opacity" values="0.35;0.9;0.45;0.85;0.35" dur="10s" begin="-5s" repeatCount="indefinite"/>
      <animate attributeName="r" values="2.9;4;3.1;3.8;2.9" dur="10s" begin="-5s" repeatCount="indefinite"/>
    </circle>
    <circle cx="1262" cy="600" r="6" fill="none" stroke="#f6f3ee" stroke-width="1" stroke-opacity="0">
      <animate attributeName="r" values="5;7;18" dur="8.2s" begin="-5s" repeatCount="indefinite"/>
      <animate attributeName="stroke-opacity" values="0;0.28;0" keyTimes="0;0.15;1" dur="8.2s" begin="-5s" repeatCount="indefinite"/>
    </circle>
    <circle cx="1262" cy="600" r="3" fill="#f6f3ee" opacity="0.5">
      <animate attributeName="opacity" values="0.35;0.85;0.45;0.9;0.35" dur="14s" begin="-9s" repeatCount="indefinite"/>
      <animate attributeName="r" values="2.9;4;3.1;3.8;2.9" dur="14s" begin="-9s" repeatCount="indefinite"/>
    </circle>
  </g>
</svg>
